<mxfile>
    <diagram id="Oyg6uo39dbkLDh-KpgRL" name="Page-1">
        <mxGraphModel dx="1034" dy="639" grid="1" gridSize="10" guides="1" tooltips="1" connect="1" arrows="1" fold="1" page="1" pageScale="1" pageWidth="827" pageHeight="1169" background="#283618" math="0" shadow="0">
            <root>
                <mxCell id="0"/>
                <mxCell id="1" parent="0"/>
                <mxCell id="2" value="funciones" style="swimlane;fontStyle=1;align=center;verticalAlign=top;childLayout=stackLayout;horizontal=1;startSize=26;horizontalStack=0;resizeParent=1;resizeParentMax=0;resizeLast=0;collapsible=1;marginBottom=0;fillColor=#BC6C25;strokeColor=#DDA15E;fontColor=#FEFAE0;" vertex="1" parent="1">
                    <mxGeometry x="140" y="420" width="230" height="190" as="geometry"/>
                </mxCell>
                <mxCell id="66" value="idfuncion -int" style="text;strokeColor=none;fillColor=none;align=left;verticalAlign=top;spacingLeft=4;spacingRight=4;overflow=hidden;rotatable=0;points=[[0,0.5],[1,0.5]];portConstraint=eastwest;fontColor=#FEFAE0;" vertex="1" parent="2">
                    <mxGeometry y="26" width="230" height="26" as="geometry"/>
                </mxCell>
                <mxCell id="3" value="nombre -varchar (50)" style="text;strokeColor=none;fillColor=none;align=left;verticalAlign=top;spacingLeft=4;spacingRight=4;overflow=hidden;rotatable=0;points=[[0,0.5],[1,0.5]];portConstraint=eastwest;fontColor=#FEFAE0;" vertex="1" parent="2">
                    <mxGeometry y="52" width="230" height="26" as="geometry"/>
                </mxCell>
                <mxCell id="4" value="horarioInicio  -varchar (50)" style="text;strokeColor=none;fillColor=none;align=left;verticalAlign=top;spacingLeft=4;spacingRight=4;overflow=hidden;rotatable=0;points=[[0,0.5],[1,0.5]];portConstraint=eastwest;fontColor=#FEFAE0;" vertex="1" parent="2">
                    <mxGeometry y="78" width="230" height="26" as="geometry"/>
                </mxCell>
                <mxCell id="5" value="duracionObra  -varchar (50)" style="text;strokeColor=none;fillColor=none;align=left;verticalAlign=top;spacingLeft=4;spacingRight=4;overflow=hidden;rotatable=0;points=[[0,0.5],[1,0.5]];portConstraint=eastwest;fontColor=#FEFAE0;" vertex="1" parent="2">
                    <mxGeometry y="104" width="230" height="26" as="geometry"/>
                </mxCell>
                <mxCell id="6" value="precio -int" style="text;strokeColor=none;fillColor=none;align=left;verticalAlign=top;spacingLeft=4;spacingRight=4;overflow=hidden;rotatable=0;points=[[0,0.5],[1,0.5]];portConstraint=eastwest;fontColor=#FEFAE0;" vertex="1" parent="2">
                    <mxGeometry y="130" width="230" height="26" as="geometry"/>
                </mxCell>
                <mxCell id="67" value="idteatro -int" style="text;strokeColor=none;fillColor=none;align=left;verticalAlign=top;spacingLeft=4;spacingRight=4;overflow=hidden;rotatable=0;points=[[0,0.5],[1,0.5]];portConstraint=eastwest;fontColor=#FEFAE0;" vertex="1" parent="2">
                    <mxGeometry y="156" width="230" height="26" as="geometry"/>
                </mxCell>
                <mxCell id="7" value="" style="line;strokeWidth=1;fillColor=none;align=left;verticalAlign=middle;spacingTop=-1;spacingLeft=3;spacingRight=3;rotatable=0;labelPosition=right;points=[];portConstraint=eastwest;strokeColor=#DDA15E;fontColor=#FEFAE0;labelBackgroundColor=#283618;" vertex="1" parent="2">
                    <mxGeometry y="182" width="230" height="8" as="geometry"/>
                </mxCell>
                <mxCell id="11" value="teatro" style="swimlane;fontStyle=1;align=center;verticalAlign=top;childLayout=stackLayout;horizontal=1;startSize=26;horizontalStack=0;resizeParent=1;resizeParentMax=0;resizeLast=0;collapsible=1;marginBottom=0;fillColor=#BC6C25;strokeColor=#DDA15E;fontColor=#FEFAE0;" vertex="1" parent="1">
                    <mxGeometry x="460" y="370" width="320" height="112" as="geometry"/>
                </mxCell>
                <mxCell id="12" value="idteatro (int)" style="text;strokeColor=none;fillColor=none;align=left;verticalAlign=top;spacingLeft=4;spacingRight=4;overflow=hidden;rotatable=0;points=[[0,0.5],[1,0.5]];portConstraint=eastwest;fontColor=#FEFAE0;" vertex="1" parent="11">
                    <mxGeometry y="26" width="320" height="26" as="geometry"/>
                </mxCell>
                <mxCell id="13" value="nombreTeatro -varchar (50)" style="text;strokeColor=none;fillColor=none;align=left;verticalAlign=top;spacingLeft=4;spacingRight=4;overflow=hidden;rotatable=0;points=[[0,0.5],[1,0.5]];portConstraint=eastwest;fontColor=#FEFAE0;" vertex="1" parent="11">
                    <mxGeometry y="52" width="320" height="26" as="geometry"/>
                </mxCell>
                <mxCell id="14" value="direccion -varchar (50)" style="text;strokeColor=none;fillColor=none;align=left;verticalAlign=top;spacingLeft=4;spacingRight=4;overflow=hidden;rotatable=0;points=[[0,0.5],[1,0.5]];portConstraint=eastwest;fontColor=#FEFAE0;" vertex="1" parent="11">
                    <mxGeometry y="78" width="320" height="26" as="geometry"/>
                </mxCell>
                <mxCell id="15" value="" style="line;strokeWidth=1;fillColor=none;align=left;verticalAlign=middle;spacingTop=-1;spacingLeft=3;spacingRight=3;rotatable=0;labelPosition=right;points=[];portConstraint=eastwest;strokeColor=#DDA15E;fontColor=#FEFAE0;labelBackgroundColor=#283618;" vertex="1" parent="11">
                    <mxGeometry y="104" width="320" height="8" as="geometry"/>
                </mxCell>
                <mxCell id="32" value="obrateatro&#10;" style="swimlane;fontStyle=1;align=center;verticalAlign=top;childLayout=stackLayout;horizontal=1;startSize=26;horizontalStack=0;resizeParent=1;resizeParentMax=0;resizeLast=0;collapsible=1;marginBottom=0;fillColor=#BC6C25;strokeColor=#DDA15E;fontColor=#FEFAE0;" vertex="1" parent="1">
                    <mxGeometry x="555" y="180" width="130" height="60" as="geometry"/>
                </mxCell>
                <mxCell id="33" value="idfuncion -int" style="text;strokeColor=none;fillColor=none;align=left;verticalAlign=top;spacingLeft=4;spacingRight=4;overflow=hidden;rotatable=0;points=[[0,0.5],[1,0.5]];portConstraint=eastwest;fontColor=#FEFAE0;" vertex="1" parent="32">
                    <mxGeometry y="26" width="130" height="26" as="geometry"/>
                </mxCell>
                <mxCell id="34" value="" style="line;strokeWidth=1;fillColor=none;align=left;verticalAlign=middle;spacingTop=-1;spacingLeft=3;spacingRight=3;rotatable=0;labelPosition=right;points=[];portConstraint=eastwest;strokeColor=#DDA15E;fontColor=#FEFAE0;labelBackgroundColor=#283618;" vertex="1" parent="32">
                    <mxGeometry y="52" width="130" height="8" as="geometry"/>
                </mxCell>
                <mxCell id="38" value="teatroMusicales" style="swimlane;fontStyle=1;align=center;verticalAlign=top;childLayout=stackLayout;horizontal=1;startSize=26;horizontalStack=0;resizeParent=1;resizeParentMax=0;resizeLast=0;collapsible=1;marginBottom=0;fillColor=#BC6C25;strokeColor=#DDA15E;fontColor=#FEFAE0;" vertex="1" parent="1">
                    <mxGeometry x="290" y="130" width="170" height="112" as="geometry"/>
                </mxCell>
                <mxCell id="77" value="idfuncion -int" style="text;strokeColor=none;fillColor=none;align=left;verticalAlign=top;spacingLeft=4;spacingRight=4;overflow=hidden;rotatable=0;points=[[0,0.5],[1,0.5]];portConstraint=eastwest;fontColor=#FEFAE0;" vertex="1" parent="38">
                    <mxGeometry y="26" width="170" height="26" as="geometry"/>
                </mxCell>
                <mxCell id="39" value="director varchar (50)" style="text;strokeColor=none;fillColor=none;align=left;verticalAlign=top;spacingLeft=4;spacingRight=4;overflow=hidden;rotatable=0;points=[[0,0.5],[1,0.5]];portConstraint=eastwest;fontColor=#FEFAE0;" vertex="1" parent="38">
                    <mxGeometry y="52" width="170" height="26" as="geometry"/>
                </mxCell>
                <mxCell id="40" value="cantidadPersonaEscena -int" style="text;strokeColor=none;fillColor=none;align=left;verticalAlign=top;spacingLeft=4;spacingRight=4;overflow=hidden;rotatable=0;points=[[0,0.5],[1,0.5]];portConstraint=eastwest;fontColor=#FEFAE0;" vertex="1" parent="38">
                    <mxGeometry y="78" width="170" height="26" as="geometry"/>
                </mxCell>
                <mxCell id="41" value="" style="line;strokeWidth=1;fillColor=none;align=left;verticalAlign=middle;spacingTop=-1;spacingLeft=3;spacingRight=3;rotatable=0;labelPosition=right;points=[];portConstraint=eastwest;strokeColor=#DDA15E;fontColor=#FEFAE0;labelBackgroundColor=#283618;" vertex="1" parent="38">
                    <mxGeometry y="104" width="170" height="8" as="geometry"/>
                </mxCell>
                <mxCell id="45" value="teatroCine" style="swimlane;fontStyle=1;align=center;verticalAlign=top;childLayout=stackLayout;horizontal=1;startSize=26;horizontalStack=0;resizeParent=1;resizeParentMax=0;resizeLast=0;collapsible=1;marginBottom=0;fillColor=#BC6C25;strokeColor=#DDA15E;fontColor=#FEFAE0;" vertex="1" parent="1">
                    <mxGeometry x="40" y="170" width="140" height="112" as="geometry"/>
                </mxCell>
                <mxCell id="82" value="idfuncion -int" style="text;strokeColor=none;fillColor=none;align=left;verticalAlign=top;spacingLeft=4;spacingRight=4;overflow=hidden;rotatable=0;points=[[0,0.5],[1,0.5]];portConstraint=eastwest;fontColor=#FEFAE0;" vertex="1" parent="45">
                    <mxGeometry y="26" width="140" height="26" as="geometry"/>
                </mxCell>
                <mxCell id="46" value="genero - varchar (50)" style="text;strokeColor=none;fillColor=none;align=left;verticalAlign=top;spacingLeft=4;spacingRight=4;overflow=hidden;rotatable=0;points=[[0,0.5],[1,0.5]];portConstraint=eastwest;fontColor=#FEFAE0;" vertex="1" parent="45">
                    <mxGeometry y="52" width="140" height="26" as="geometry"/>
                </mxCell>
                <mxCell id="47" value="paisOrigin - varchar (50)&#10; " style="text;strokeColor=none;fillColor=none;align=left;verticalAlign=top;spacingLeft=4;spacingRight=4;overflow=hidden;rotatable=0;points=[[0,0.5],[1,0.5]];portConstraint=eastwest;fontColor=#FEFAE0;" vertex="1" parent="45">
                    <mxGeometry y="78" width="140" height="26" as="geometry"/>
                </mxCell>
                <mxCell id="48" value="" style="line;strokeWidth=1;fillColor=none;align=left;verticalAlign=middle;spacingTop=-1;spacingLeft=3;spacingRight=3;rotatable=0;labelPosition=right;points=[];portConstraint=eastwest;strokeColor=#DDA15E;fontColor=#FEFAE0;labelBackgroundColor=#283618;" vertex="1" parent="45">
                    <mxGeometry y="104" width="140" height="8" as="geometry"/>
                </mxCell>
                <mxCell id="69" value="" style="endArrow=none;html=1;rounded=0;align=center;verticalAlign=top;endFill=0;labelBackgroundColor=none;fontColor=#FEFAE0;strokeColor=#DDA15E;fillColor=#BC6C25;exitX=1;exitY=0.5;exitDx=0;exitDy=0;entryX=0;entryY=0.5;entryDx=0;entryDy=0;" edge="1" parent="1" source="67" target="12">
                    <mxGeometry relative="1" as="geometry">
                        <mxPoint x="340" y="330" as="sourcePoint"/>
                        <mxPoint x="500" y="330" as="targetPoint"/>
                    </mxGeometry>
                </mxCell>
                <mxCell id="70" value="end1" style="resizable=0;html=1;align=left;verticalAlign=bottom;labelBackgroundColor=none;" connectable="0" vertex="1" parent="69">
                    <mxGeometry x="-1" relative="1" as="geometry"/>
                </mxCell>
                <mxCell id="71" value="0..1" style="resizable=0;html=1;align=left;verticalAlign=top;labelBackgroundColor=none;" connectable="0" vertex="1" parent="69">
                    <mxGeometry x="-1" relative="1" as="geometry"/>
                </mxCell>
                <mxCell id="72" value="Connector1" style="resizable=0;html=1;align=right;verticalAlign=bottom;labelBackgroundColor=none;" connectable="0" vertex="1" parent="69">
                    <mxGeometry x="1" relative="1" as="geometry"/>
                </mxCell>
                <mxCell id="73" value="" style="endArrow=none;html=1;rounded=0;align=center;verticalAlign=top;endFill=0;labelBackgroundColor=none;fontColor=#FEFAE0;strokeColor=#DDA15E;fillColor=#BC6C25;exitX=0.75;exitY=0;exitDx=0;exitDy=0;entryX=0.014;entryY=0.122;entryDx=0;entryDy=0;entryPerimeter=0;" edge="1" parent="1" source="2" target="33">
                    <mxGeometry relative="1" as="geometry">
                        <mxPoint x="340" y="400" as="sourcePoint"/>
                        <mxPoint x="500" y="400" as="targetPoint"/>
                    </mxGeometry>
                </mxCell>
                <mxCell id="74" value="end1" style="resizable=0;html=1;align=left;verticalAlign=bottom;labelBackgroundColor=none;" connectable="0" vertex="1" parent="73">
                    <mxGeometry x="-1" relative="1" as="geometry"/>
                </mxCell>
                <mxCell id="75" value="0..1" style="resizable=0;html=1;align=left;verticalAlign=top;labelBackgroundColor=none;" connectable="0" vertex="1" parent="73">
                    <mxGeometry x="-1" relative="1" as="geometry"/>
                </mxCell>
                <mxCell id="76" value="Connector1" style="resizable=0;html=1;align=right;verticalAlign=bottom;labelBackgroundColor=none;" connectable="0" vertex="1" parent="73">
                    <mxGeometry x="1" relative="1" as="geometry"/>
                </mxCell>
                <mxCell id="78" value="" style="endArrow=none;html=1;rounded=0;align=center;verticalAlign=top;endFill=0;labelBackgroundColor=none;fontColor=#FEFAE0;strokeColor=#DDA15E;fillColor=#BC6C25;entryX=0;entryY=0.5;entryDx=0;entryDy=0;exitX=0.5;exitY=0;exitDx=0;exitDy=0;" edge="1" parent="1" source="2" target="77">
                    <mxGeometry relative="1" as="geometry">
                        <mxPoint x="340" y="400" as="sourcePoint"/>
                        <mxPoint x="500" y="400" as="targetPoint"/>
                    </mxGeometry>
                </mxCell>
                <mxCell id="79" value="end1" style="resizable=0;html=1;align=left;verticalAlign=bottom;labelBackgroundColor=none;" connectable="0" vertex="1" parent="78">
                    <mxGeometry x="-1" relative="1" as="geometry"/>
                </mxCell>
                <mxCell id="80" value="0..1" style="resizable=0;html=1;align=left;verticalAlign=top;labelBackgroundColor=none;" connectable="0" vertex="1" parent="78">
                    <mxGeometry x="-1" relative="1" as="geometry"/>
                </mxCell>
                <mxCell id="81" value="Connector1" style="resizable=0;html=1;align=right;verticalAlign=bottom;labelBackgroundColor=none;" connectable="0" vertex="1" parent="78">
                    <mxGeometry x="1" relative="1" as="geometry"/>
                </mxCell>
                <mxCell id="83" value="" style="endArrow=none;html=1;rounded=0;align=center;verticalAlign=top;endFill=0;labelBackgroundColor=none;fontColor=#FEFAE0;strokeColor=#DDA15E;fillColor=#BC6C25;exitX=0.225;exitY=0.009;exitDx=0;exitDy=0;exitPerimeter=0;entryX=1;entryY=0.5;entryDx=0;entryDy=0;" edge="1" parent="1" source="2" target="82">
                    <mxGeometry relative="1" as="geometry">
                        <mxPoint x="340" y="400" as="sourcePoint"/>
                        <mxPoint x="500" y="400" as="targetPoint"/>
                    </mxGeometry>
                </mxCell>
                <mxCell id="84" value="end1" style="resizable=0;html=1;align=left;verticalAlign=bottom;labelBackgroundColor=none;" connectable="0" vertex="1" parent="83">
                    <mxGeometry x="-1" relative="1" as="geometry"/>
                </mxCell>
                <mxCell id="85" value="0..1" style="resizable=0;html=1;align=left;verticalAlign=top;labelBackgroundColor=none;" connectable="0" vertex="1" parent="83">
                    <mxGeometry x="-1" relative="1" as="geometry"/>
                </mxCell>
                <mxCell id="86" value="Connector1" style="resizable=0;html=1;align=right;verticalAlign=bottom;labelBackgroundColor=none;" connectable="0" vertex="1" parent="83">
                    <mxGeometry x="1" relative="1" as="geometry"/>
                </mxCell>
            </root>
        </mxGraphModel>
    </diagram>
</mxfile>